<?xml version="1.0" encoding="utf-8"?>
<!-- Generator: Adobe Illustrator 26.0.1, SVG Export Plug-In . SVG Version: 6.00 Build 0)  -->
<svg version="1.1" id="Layer_1" xmlns="http://www.w3.org/2000/svg" xmlns:xlink="http://www.w3.org/1999/xlink" x="0px" y="0px"
	 viewBox="0 0 28 28" style="enable-background:new 0 0 28 28;" xml:space="preserve">
<style type="text/css">
	.st0{fill:#FFFFFF;}
	.st1{fill:#EC721B;}
</style>
<circle class="st0" cx="14" cy="14" r="10.4"/>
<path class="st1" d="M4.1,4.1c2-2,4.5-3.3,7.2-3.8C14-0.3,16.8,0,19.4,1.1c2.6,1.1,4.7,2.9,6.3,5.2c1.5,2.3,2.4,5,2.4,7.8
	s-0.8,5.5-2.4,7.8c-1.5,2.3-3.7,4.1-6.3,5.2s-5.4,1.3-8.1,0.8c-2.7-0.5-5.2-1.9-7.2-3.8C1.5,21.3,0,17.7,0,14
	C0,10.3,1.5,6.7,4.1,4.1z M15.4,17.5c-0.1,0.1-0.2,0.2-0.2,0.3c-0.1,0.1-0.1,0.3-0.1,0.4c0,0.1,0,0.3,0.1,0.4
	c0.1,0.1,0.1,0.2,0.2,0.3c0.1,0.1,0.2,0.2,0.3,0.2c0.1,0.1,0.3,0.1,0.4,0.1c0.1,0,0.3,0,0.4-0.1c0.1-0.1,0.2-0.1,0.3-0.2l4.3-4.3
	c0.1-0.1,0.2-0.2,0.2-0.3c0.1-0.1,0.1-0.3,0.1-0.4s0-0.3-0.1-0.4c-0.1-0.1-0.1-0.2-0.2-0.3l-4.3-4.3c-0.2-0.2-0.5-0.3-0.8-0.3
	c-0.3,0-0.6,0.1-0.8,0.3c-0.2,0.2-0.3,0.5-0.3,0.8c0,0.3,0.1,0.6,0.3,0.8l3.5,3.5L15.4,17.5z M7.9,17.5c-0.1,0.1-0.2,0.2-0.2,0.3
	c-0.1,0.1-0.1,0.3-0.1,0.4c0,0.1,0,0.3,0.1,0.4c0.1,0.1,0.1,0.2,0.2,0.3c0.1,0.1,0.2,0.2,0.3,0.2c0.1,0.1,0.3,0.1,0.4,0.1
	c0.1,0,0.3,0,0.4-0.1c0.1-0.1,0.2-0.1,0.3-0.2l4.3-4.3c0.1-0.1,0.2-0.2,0.2-0.3C14,14.3,14,14.1,14,14s0-0.3-0.1-0.4
	c-0.1-0.1-0.1-0.2-0.2-0.3L9.4,8.9C9.2,8.7,8.9,8.6,8.6,8.6c-0.3,0-0.6,0.1-0.8,0.3C7.7,9.1,7.5,9.4,7.5,9.7c0,0.3,0.1,0.6,0.3,0.8
	l3.5,3.5L7.9,17.5z"/>
</svg>
