<?xml version="1.0" encoding="utf-8"?>
<!-- Generator: Adobe Illustrator 26.0.1, SVG Export Plug-In . SVG Version: 6.00 Build 0)  -->
<svg version="1.1" id="Layer_1" xmlns="http://www.w3.org/2000/svg" xmlns:xlink="http://www.w3.org/1999/xlink" x="0px" y="0px"
	 viewBox="0 0 28 28" style="enable-background:new 0 0 28 28;" xml:space="preserve">
<style type="text/css">
	.st0{fill:#FFFFFF;}
	.st1{fill:#EC721B;}
</style>
<circle class="st0" cx="14" cy="14" r="10.4"/>
<path class="st1" d="M23.9,23.9c-2,2-4.5,3.3-7.2,3.8s-5.5,0.3-8.1-0.8c-2.6-1.1-4.7-2.9-6.3-5.2C0.8,19.5,0,16.8,0,14
	s0.8-5.5,2.4-7.8c1.5-2.3,3.7-4.1,6.3-5.2C11.2,0,14-0.3,16.7,0.3c2.7,0.5,5.2,1.9,7.2,3.8C26.5,6.7,28,10.3,28,14
	S26.5,21.3,23.9,23.9z M12.6,10.5c0.1-0.1,0.2-0.2,0.2-0.3c0.1-0.1,0.1-0.3,0.1-0.4c0-0.1,0-0.3-0.1-0.4c-0.1-0.1-0.1-0.2-0.2-0.3
	c-0.1-0.1-0.2-0.2-0.3-0.2c-0.1-0.1-0.3-0.1-0.4-0.1c-0.1,0-0.3,0-0.4,0.1c-0.1,0.1-0.2,0.1-0.3,0.2l-4.3,4.3
	c-0.1,0.1-0.2,0.2-0.2,0.3c-0.1,0.1-0.1,0.3-0.1,0.4s0,0.3,0.1,0.4c0.1,0.1,0.1,0.2,0.2,0.3l4.3,4.3c0.2,0.2,0.5,0.3,0.8,0.3
	c0.3,0,0.6-0.1,0.8-0.3c0.2-0.2,0.3-0.5,0.3-0.8c0-0.3-0.1-0.6-0.3-0.8L9.1,14L12.6,10.5z M20.1,10.5c0.1-0.1,0.2-0.2,0.2-0.3
	c0.1-0.1,0.1-0.3,0.1-0.4c0-0.1,0-0.3-0.1-0.4c-0.1-0.1-0.1-0.2-0.2-0.3c-0.1-0.1-0.2-0.2-0.3-0.2c-0.1-0.1-0.3-0.1-0.4-0.1
	c-0.1,0-0.3,0-0.4,0.1c-0.1,0.1-0.2,0.1-0.3,0.2l-4.3,4.3c-0.1,0.1-0.2,0.2-0.2,0.3C14,13.7,14,13.9,14,14s0,0.3,0.1,0.4
	c0.1,0.1,0.1,0.2,0.2,0.3l4.3,4.3c0.2,0.2,0.5,0.3,0.8,0.3c0.3,0,0.6-0.1,0.8-0.3c0.2-0.2,0.3-0.5,0.3-0.8c0-0.3-0.1-0.6-0.3-0.8
	L16.6,14L20.1,10.5z"/>
</svg>
